<svg xmlns="http://www.w3.org/2000/svg" width="504.469" height="360.688" viewBox="0 0 504.469 360.688">
  <defs>
    <style>
      .cls-1 {
        fill: #dd6e0f;
        fill-rule: evenodd;
      }
    </style>
  </defs>
  <path id="F" class="cls-1" d="M431.24,331.813q-70.5,0-117.92,33.582-53.832,38.2-53.833,106.128,0,45.373,36.4,71.265,32.809,23.07,82.287,23.071,32.041,0,53.577-14.868,25.121-17.172,25.122-47.937,0-27.685-21.021-45.117-19.483-16.4-46.142-16.407-24.609,0-43.579,13.843-20.253,14.36-25.122,38.2-14.871-3.077-14.868-25.122,0-31.784,28.711-52.808a98.549,98.549,0,0,1,59.472-19.226H540.957l-88.7,253.528-119.715-18.97a42.4,42.4,0,0,0-6.408-.512q-19.995,0-34.864,21.276-8.459,12.052-19.738,40.76H450.979q78.952,0,105.615-76.136l20-56.652,48.194-.513q45.374-.512,48.962-41.016H591.2l42.554-121.765H724.5l39.477-64.6H431.24Z" transform="translate(-259.5 -331.812)"/>
</svg>
