<svg width="24" height="29" viewBox="0 0 24 29" fill="none" xmlns="http://www.w3.org/2000/svg">
<path d="M16 0.333496H8V3.00016H16V0.333496ZM10.6667 17.6668H13.3333V9.66683H10.6667V17.6668ZM21.3667 8.84683L23.2667 6.94683C22.6933 6.26016 22.0667 5.6335 21.38 5.06016L19.48 6.96016C17.4333 5.32016 14.8267 4.3335 11.9933 4.3335C5.36 4.3335 0 9.70683 0 16.3335C0 22.9602 5.36 28.3335 11.9933 28.3335C18.6267 28.3335 24 22.9602 24 16.3335C24 13.5002 23.0133 10.9002 21.3667 8.84683ZM12 25.6668C6.84667 25.6668 2.66667 21.4868 2.66667 16.3335C2.66667 11.1802 6.84667 7.00016 12 7.00016C17.1533 7.00016 21.3333 11.1802 21.3333 16.3335C21.3333 21.4868 17.1533 25.6668 12 25.6668Z" fill="white"/>
</svg>
